<mxfile host="Electron" agent="Mozilla/5.0 (Macintosh; Intel Mac OS X 10_15_7) AppleWebKit/537.36 (KHTML, like Gecko) draw.io/27.0.2 Chrome/134.0.6998.205 Electron/35.3.0 Safari/537.36" version="27.0.2">
  <diagram id="C5RBs43oDa-KdzZeNtuy" name="Page-1">
    <mxGraphModel dx="1234" dy="786" grid="1" gridSize="10" guides="1" tooltips="1" connect="1" arrows="1" fold="1" page="1" pageScale="1" pageWidth="827" pageHeight="1169" math="0" shadow="0">
      <root>
        <mxCell id="WIyWlLk6GJQsqaUBKTNV-0" />
        <mxCell id="WIyWlLk6GJQsqaUBKTNV-1" parent="WIyWlLk6GJQsqaUBKTNV-0" />
        <mxCell id="hchBjUjP1Nh9wDHdSeyE-2" style="edgeStyle=orthogonalEdgeStyle;rounded=0;orthogonalLoop=1;jettySize=auto;html=1;" parent="WIyWlLk6GJQsqaUBKTNV-1" source="hchBjUjP1Nh9wDHdSeyE-0" target="hchBjUjP1Nh9wDHdSeyE-1" edge="1">
          <mxGeometry relative="1" as="geometry" />
        </mxCell>
        <mxCell id="hchBjUjP1Nh9wDHdSeyE-0" value="begin" style="rounded=1;whiteSpace=wrap;html=1;arcSize=50;" parent="WIyWlLk6GJQsqaUBKTNV-1" vertex="1">
          <mxGeometry x="374" y="20" width="80" height="40" as="geometry" />
        </mxCell>
        <mxCell id="hchBjUjP1Nh9wDHdSeyE-4" style="edgeStyle=orthogonalEdgeStyle;rounded=0;orthogonalLoop=1;jettySize=auto;html=1;" parent="WIyWlLk6GJQsqaUBKTNV-1" source="hchBjUjP1Nh9wDHdSeyE-1" edge="1">
          <mxGeometry relative="1" as="geometry">
            <mxPoint x="414" y="270" as="targetPoint" />
          </mxGeometry>
        </mxCell>
        <mxCell id="hchBjUjP1Nh9wDHdSeyE-1" value="int depth = 0,&lt;div&gt;start = -1&lt;/div&gt;&lt;div&gt;i = 0&lt;/div&gt;" style="rounded=0;whiteSpace=wrap;html=1;" parent="WIyWlLk6GJQsqaUBKTNV-1" vertex="1">
          <mxGeometry x="369" y="90" width="90" height="50" as="geometry" />
        </mxCell>
        <mxCell id="hchBjUjP1Nh9wDHdSeyE-8" style="edgeStyle=orthogonalEdgeStyle;rounded=0;orthogonalLoop=1;jettySize=auto;html=1;entryX=1;entryY=0.5;entryDx=0;entryDy=0;" parent="WIyWlLk6GJQsqaUBKTNV-1" source="hchBjUjP1Nh9wDHdSeyE-5" target="hchBjUjP1Nh9wDHdSeyE-7" edge="1">
          <mxGeometry relative="1" as="geometry" />
        </mxCell>
        <mxCell id="ece8O2Vh7LZ30s53ItJL-7" value="да" style="edgeLabel;html=1;align=center;verticalAlign=middle;resizable=0;points=[];" vertex="1" connectable="0" parent="hchBjUjP1Nh9wDHdSeyE-8">
          <mxGeometry x="-0.2075" y="1" relative="1" as="geometry">
            <mxPoint as="offset" />
          </mxGeometry>
        </mxCell>
        <mxCell id="hchBjUjP1Nh9wDHdSeyE-20" style="edgeStyle=orthogonalEdgeStyle;rounded=0;orthogonalLoop=1;jettySize=auto;html=1;entryX=0.5;entryY=0;entryDx=0;entryDy=0;" parent="WIyWlLk6GJQsqaUBKTNV-1" source="hchBjUjP1Nh9wDHdSeyE-5" target="hchBjUjP1Nh9wDHdSeyE-18" edge="1">
          <mxGeometry relative="1" as="geometry" />
        </mxCell>
        <mxCell id="ece8O2Vh7LZ30s53ItJL-10" value="нет" style="edgeLabel;html=1;align=center;verticalAlign=middle;resizable=0;points=[];" vertex="1" connectable="0" parent="hchBjUjP1Nh9wDHdSeyE-20">
          <mxGeometry x="-0.64" y="1" relative="1" as="geometry">
            <mxPoint as="offset" />
          </mxGeometry>
        </mxCell>
        <mxCell id="hchBjUjP1Nh9wDHdSeyE-5" value="input[i] == &#39;(&#39;" style="rhombus;whiteSpace=wrap;html=1;" parent="WIyWlLk6GJQsqaUBKTNV-1" vertex="1">
          <mxGeometry x="374" y="270" width="80" height="80" as="geometry" />
        </mxCell>
        <mxCell id="hchBjUjP1Nh9wDHdSeyE-11" style="edgeStyle=orthogonalEdgeStyle;rounded=0;orthogonalLoop=1;jettySize=auto;html=1;" parent="WIyWlLk6GJQsqaUBKTNV-1" source="hchBjUjP1Nh9wDHdSeyE-7" target="hchBjUjP1Nh9wDHdSeyE-10" edge="1">
          <mxGeometry relative="1" as="geometry" />
        </mxCell>
        <mxCell id="ece8O2Vh7LZ30s53ItJL-8" value="да" style="edgeLabel;html=1;align=center;verticalAlign=middle;resizable=0;points=[];" vertex="1" connectable="0" parent="hchBjUjP1Nh9wDHdSeyE-11">
          <mxGeometry x="0.1837" y="3" relative="1" as="geometry">
            <mxPoint as="offset" />
          </mxGeometry>
        </mxCell>
        <mxCell id="hchBjUjP1Nh9wDHdSeyE-14" style="edgeStyle=orthogonalEdgeStyle;rounded=0;orthogonalLoop=1;jettySize=auto;html=1;entryX=0.5;entryY=0;entryDx=0;entryDy=0;" parent="WIyWlLk6GJQsqaUBKTNV-1" source="hchBjUjP1Nh9wDHdSeyE-7" target="hchBjUjP1Nh9wDHdSeyE-13" edge="1">
          <mxGeometry relative="1" as="geometry" />
        </mxCell>
        <mxCell id="ece8O2Vh7LZ30s53ItJL-9" value="нет" style="edgeLabel;html=1;align=center;verticalAlign=middle;resizable=0;points=[];" vertex="1" connectable="0" parent="hchBjUjP1Nh9wDHdSeyE-14">
          <mxGeometry x="-0.6" y="2" relative="1" as="geometry">
            <mxPoint as="offset" />
          </mxGeometry>
        </mxCell>
        <mxCell id="hchBjUjP1Nh9wDHdSeyE-7" value="depth == 0" style="rhombus;whiteSpace=wrap;html=1;" parent="WIyWlLk6GJQsqaUBKTNV-1" vertex="1">
          <mxGeometry x="241" y="270" width="80" height="80" as="geometry" />
        </mxCell>
        <mxCell id="ece8O2Vh7LZ30s53ItJL-2" style="edgeStyle=orthogonalEdgeStyle;rounded=0;orthogonalLoop=1;jettySize=auto;html=1;" edge="1" parent="WIyWlLk6GJQsqaUBKTNV-1" source="hchBjUjP1Nh9wDHdSeyE-10">
          <mxGeometry relative="1" as="geometry">
            <mxPoint x="280" y="380" as="targetPoint" />
            <Array as="points">
              <mxPoint x="160" y="380" />
              <mxPoint x="280" y="380" />
            </Array>
          </mxGeometry>
        </mxCell>
        <mxCell id="hchBjUjP1Nh9wDHdSeyE-10" value="strart = i" style="rounded=0;whiteSpace=wrap;html=1;" parent="WIyWlLk6GJQsqaUBKTNV-1" vertex="1">
          <mxGeometry x="101.5" y="285" width="90" height="50" as="geometry" />
        </mxCell>
        <mxCell id="hchBjUjP1Nh9wDHdSeyE-19" style="edgeStyle=orthogonalEdgeStyle;rounded=0;orthogonalLoop=1;jettySize=auto;html=1;entryX=0;entryY=0.5;entryDx=0;entryDy=0;" parent="WIyWlLk6GJQsqaUBKTNV-1" source="hchBjUjP1Nh9wDHdSeyE-13" target="hchBjUjP1Nh9wDHdSeyE-18" edge="1">
          <mxGeometry relative="1" as="geometry" />
        </mxCell>
        <mxCell id="hchBjUjP1Nh9wDHdSeyE-13" value="depth++" style="rounded=0;whiteSpace=wrap;html=1;" parent="WIyWlLk6GJQsqaUBKTNV-1" vertex="1">
          <mxGeometry x="231.5" y="395" width="99" height="50" as="geometry" />
        </mxCell>
        <mxCell id="hchBjUjP1Nh9wDHdSeyE-22" value="да" style="edgeStyle=orthogonalEdgeStyle;rounded=0;orthogonalLoop=1;jettySize=auto;html=1;entryX=0.5;entryY=0;entryDx=0;entryDy=0;" parent="WIyWlLk6GJQsqaUBKTNV-1" source="hchBjUjP1Nh9wDHdSeyE-18" target="hchBjUjP1Nh9wDHdSeyE-21" edge="1">
          <mxGeometry relative="1" as="geometry" />
        </mxCell>
        <mxCell id="hchBjUjP1Nh9wDHdSeyE-18" value="input[i] == &#39;)&#39;" style="rhombus;whiteSpace=wrap;html=1;" parent="WIyWlLk6GJQsqaUBKTNV-1" vertex="1">
          <mxGeometry x="374" y="380" width="80" height="80" as="geometry" />
        </mxCell>
        <mxCell id="hchBjUjP1Nh9wDHdSeyE-26" style="edgeStyle=orthogonalEdgeStyle;rounded=0;orthogonalLoop=1;jettySize=auto;html=1;" parent="WIyWlLk6GJQsqaUBKTNV-1" source="hchBjUjP1Nh9wDHdSeyE-21" target="hchBjUjP1Nh9wDHdSeyE-23" edge="1">
          <mxGeometry relative="1" as="geometry" />
        </mxCell>
        <mxCell id="hchBjUjP1Nh9wDHdSeyE-21" value="depth--" style="rounded=0;whiteSpace=wrap;html=1;" parent="WIyWlLk6GJQsqaUBKTNV-1" vertex="1">
          <mxGeometry x="374" y="510" width="80" height="50" as="geometry" />
        </mxCell>
        <mxCell id="hchBjUjP1Nh9wDHdSeyE-28" style="edgeStyle=orthogonalEdgeStyle;rounded=0;orthogonalLoop=1;jettySize=auto;html=1;" parent="WIyWlLk6GJQsqaUBKTNV-1" source="hchBjUjP1Nh9wDHdSeyE-23" target="hchBjUjP1Nh9wDHdSeyE-27" edge="1">
          <mxGeometry relative="1" as="geometry" />
        </mxCell>
        <mxCell id="ece8O2Vh7LZ30s53ItJL-16" value="да" style="edgeLabel;html=1;align=center;verticalAlign=middle;resizable=0;points=[];" vertex="1" connectable="0" parent="hchBjUjP1Nh9wDHdSeyE-28">
          <mxGeometry x="-0.3" y="2" relative="1" as="geometry">
            <mxPoint as="offset" />
          </mxGeometry>
        </mxCell>
        <mxCell id="ece8O2Vh7LZ30s53ItJL-14" style="edgeStyle=orthogonalEdgeStyle;rounded=0;orthogonalLoop=1;jettySize=auto;html=1;" edge="1" parent="WIyWlLk6GJQsqaUBKTNV-1" source="hchBjUjP1Nh9wDHdSeyE-23">
          <mxGeometry relative="1" as="geometry">
            <mxPoint x="414" y="810" as="targetPoint" />
            <Array as="points">
              <mxPoint x="540" y="645" />
              <mxPoint x="540" y="810" />
            </Array>
          </mxGeometry>
        </mxCell>
        <mxCell id="ece8O2Vh7LZ30s53ItJL-19" value="нет" style="edgeLabel;html=1;align=center;verticalAlign=middle;resizable=0;points=[];" vertex="1" connectable="0" parent="ece8O2Vh7LZ30s53ItJL-14">
          <mxGeometry x="-0.3625" y="2" relative="1" as="geometry">
            <mxPoint as="offset" />
          </mxGeometry>
        </mxCell>
        <mxCell id="hchBjUjP1Nh9wDHdSeyE-23" value="depth == 0&lt;div&gt;&amp;amp;&amp;amp;&lt;br&gt;start != -1&lt;/div&gt;" style="rhombus;whiteSpace=wrap;html=1;" parent="WIyWlLk6GJQsqaUBKTNV-1" vertex="1">
          <mxGeometry x="366" y="600" width="96" height="90" as="geometry" />
        </mxCell>
        <mxCell id="hchBjUjP1Nh9wDHdSeyE-31" style="edgeStyle=orthogonalEdgeStyle;rounded=0;orthogonalLoop=1;jettySize=auto;html=1;" parent="WIyWlLk6GJQsqaUBKTNV-1" source="hchBjUjP1Nh9wDHdSeyE-27" edge="1">
          <mxGeometry relative="1" as="geometry">
            <mxPoint x="414" y="850" as="targetPoint" />
          </mxGeometry>
        </mxCell>
        <mxCell id="hchBjUjP1Nh9wDHdSeyE-27" value="String sub = input.substring(start, i + 1)" style="rounded=0;whiteSpace=wrap;html=1;" parent="WIyWlLk6GJQsqaUBKTNV-1" vertex="1">
          <mxGeometry x="341" y="730" width="146" height="60" as="geometry" />
        </mxCell>
        <mxCell id="ece8O2Vh7LZ30s53ItJL-26" style="edgeStyle=orthogonalEdgeStyle;rounded=0;orthogonalLoop=1;jettySize=auto;html=1;entryX=0;entryY=0.5;entryDx=0;entryDy=0;" edge="1" parent="WIyWlLk6GJQsqaUBKTNV-1" source="hchBjUjP1Nh9wDHdSeyE-29" target="ece8O2Vh7LZ30s53ItJL-23">
          <mxGeometry relative="1" as="geometry" />
        </mxCell>
        <mxCell id="ece8O2Vh7LZ30s53ItJL-28" value="нет" style="edgeLabel;html=1;align=center;verticalAlign=middle;resizable=0;points=[];" vertex="1" connectable="0" parent="ece8O2Vh7LZ30s53ItJL-26">
          <mxGeometry x="-0.3521" y="-2" relative="1" as="geometry">
            <mxPoint as="offset" />
          </mxGeometry>
        </mxCell>
        <mxCell id="hchBjUjP1Nh9wDHdSeyE-29" value="!validate(sub))" style="rhombus;whiteSpace=wrap;html=1;" parent="WIyWlLk6GJQsqaUBKTNV-1" vertex="1">
          <mxGeometry x="369" y="830" width="90" height="90" as="geometry" />
        </mxCell>
        <mxCell id="hchBjUjP1Nh9wDHdSeyE-32" style="edgeStyle=orthogonalEdgeStyle;rounded=0;orthogonalLoop=1;jettySize=auto;html=1;" parent="WIyWlLk6GJQsqaUBKTNV-1" edge="1">
          <mxGeometry relative="1" as="geometry">
            <mxPoint x="313" y="875" as="targetPoint" />
            <mxPoint x="369" y="875" as="sourcePoint" />
          </mxGeometry>
        </mxCell>
        <mxCell id="ece8O2Vh7LZ30s53ItJL-17" value="да" style="edgeLabel;html=1;align=center;verticalAlign=middle;resizable=0;points=[];" vertex="1" connectable="0" parent="hchBjUjP1Nh9wDHdSeyE-32">
          <mxGeometry x="-0.1786" y="1" relative="1" as="geometry">
            <mxPoint as="offset" />
          </mxGeometry>
        </mxCell>
        <mxCell id="hchBjUjP1Nh9wDHdSeyE-33" style="edgeStyle=orthogonalEdgeStyle;rounded=0;orthogonalLoop=1;jettySize=auto;html=1;" parent="WIyWlLk6GJQsqaUBKTNV-1" source="hchBjUjP1Nh9wDHdSeyE-34" target="hchBjUjP1Nh9wDHdSeyE-35" edge="1">
          <mxGeometry relative="1" as="geometry" />
        </mxCell>
        <mxCell id="hchBjUjP1Nh9wDHdSeyE-34" value="return false" style="rounded=0;whiteSpace=wrap;html=1;" parent="WIyWlLk6GJQsqaUBKTNV-1" vertex="1">
          <mxGeometry x="223" y="850" width="90" height="50" as="geometry" />
        </mxCell>
        <mxCell id="hchBjUjP1Nh9wDHdSeyE-35" value="end" style="rounded=1;whiteSpace=wrap;html=1;arcSize=50;" parent="WIyWlLk6GJQsqaUBKTNV-1" vertex="1">
          <mxGeometry x="110" y="850" width="73" height="50" as="geometry" />
        </mxCell>
        <mxCell id="hchBjUjP1Nh9wDHdSeyE-45" style="edgeStyle=orthogonalEdgeStyle;rounded=0;orthogonalLoop=1;jettySize=auto;html=1;" parent="WIyWlLk6GJQsqaUBKTNV-1" source="hchBjUjP1Nh9wDHdSeyE-39" target="hchBjUjP1Nh9wDHdSeyE-44" edge="1">
          <mxGeometry relative="1" as="geometry" />
        </mxCell>
        <mxCell id="ece8O2Vh7LZ30s53ItJL-13" value="нет" style="edgeLabel;html=1;align=center;verticalAlign=middle;resizable=0;points=[];" vertex="1" connectable="0" parent="hchBjUjP1Nh9wDHdSeyE-45">
          <mxGeometry x="-0.1747" y="4" relative="1" as="geometry">
            <mxPoint as="offset" />
          </mxGeometry>
        </mxCell>
        <mxCell id="hchBjUjP1Nh9wDHdSeyE-39" value="if (i &amp;lt; input.size())" style="rhombus;whiteSpace=wrap;html=1;" parent="WIyWlLk6GJQsqaUBKTNV-1" vertex="1">
          <mxGeometry x="650" y="390" width="166.5" height="60" as="geometry" />
        </mxCell>
        <mxCell id="hchBjUjP1Nh9wDHdSeyE-47" style="edgeStyle=orthogonalEdgeStyle;rounded=0;orthogonalLoop=1;jettySize=auto;html=1;entryX=0.5;entryY=0;entryDx=0;entryDy=0;" parent="WIyWlLk6GJQsqaUBKTNV-1" source="hchBjUjP1Nh9wDHdSeyE-44" target="hchBjUjP1Nh9wDHdSeyE-46" edge="1">
          <mxGeometry relative="1" as="geometry" />
        </mxCell>
        <mxCell id="hchBjUjP1Nh9wDHdSeyE-44" value="return validate(input)" style="rounded=0;whiteSpace=wrap;html=1;" parent="WIyWlLk6GJQsqaUBKTNV-1" vertex="1">
          <mxGeometry x="673.25" y="530" width="120" height="60" as="geometry" />
        </mxCell>
        <mxCell id="hchBjUjP1Nh9wDHdSeyE-46" value="end" style="rounded=1;whiteSpace=wrap;html=1;arcSize=50;" parent="WIyWlLk6GJQsqaUBKTNV-1" vertex="1">
          <mxGeometry x="688.38" y="635" width="89.75" height="45" as="geometry" />
        </mxCell>
        <mxCell id="ece8O2Vh7LZ30s53ItJL-5" style="edgeStyle=orthogonalEdgeStyle;rounded=0;orthogonalLoop=1;jettySize=auto;html=1;entryX=0;entryY=0.5;entryDx=0;entryDy=0;" edge="1" parent="WIyWlLk6GJQsqaUBKTNV-1" source="ece8O2Vh7LZ30s53ItJL-3" target="hchBjUjP1Nh9wDHdSeyE-39">
          <mxGeometry relative="1" as="geometry" />
        </mxCell>
        <mxCell id="ece8O2Vh7LZ30s53ItJL-3" value="i++" style="whiteSpace=wrap;html=1;" vertex="1" parent="WIyWlLk6GJQsqaUBKTNV-1">
          <mxGeometry x="530" y="395" width="90" height="50" as="geometry" />
        </mxCell>
        <mxCell id="ece8O2Vh7LZ30s53ItJL-4" value="" style="endArrow=classic;html=1;rounded=0;exitX=1;exitY=0.5;exitDx=0;exitDy=0;entryX=0;entryY=0.5;entryDx=0;entryDy=0;" edge="1" parent="WIyWlLk6GJQsqaUBKTNV-1" source="hchBjUjP1Nh9wDHdSeyE-18" target="ece8O2Vh7LZ30s53ItJL-3">
          <mxGeometry width="50" height="50" relative="1" as="geometry">
            <mxPoint x="390" y="420" as="sourcePoint" />
            <mxPoint x="440" y="370" as="targetPoint" />
          </mxGeometry>
        </mxCell>
        <mxCell id="ece8O2Vh7LZ30s53ItJL-11" value="нет" style="edgeLabel;html=1;align=center;verticalAlign=middle;resizable=0;points=[];" vertex="1" connectable="0" parent="ece8O2Vh7LZ30s53ItJL-4">
          <mxGeometry x="-0.2143" y="1" relative="1" as="geometry">
            <mxPoint x="-14" y="1" as="offset" />
          </mxGeometry>
        </mxCell>
        <mxCell id="ece8O2Vh7LZ30s53ItJL-6" value="" style="endArrow=classic;html=1;rounded=0;exitX=0.5;exitY=0;exitDx=0;exitDy=0;" edge="1" parent="WIyWlLk6GJQsqaUBKTNV-1" source="hchBjUjP1Nh9wDHdSeyE-39">
          <mxGeometry width="50" height="50" relative="1" as="geometry">
            <mxPoint x="430" y="420" as="sourcePoint" />
            <mxPoint x="414" y="230" as="targetPoint" />
            <Array as="points">
              <mxPoint x="730" y="230" />
            </Array>
          </mxGeometry>
        </mxCell>
        <mxCell id="ece8O2Vh7LZ30s53ItJL-12" value="да" style="edgeLabel;html=1;align=center;verticalAlign=middle;resizable=0;points=[];" vertex="1" connectable="0" parent="ece8O2Vh7LZ30s53ItJL-6">
          <mxGeometry x="-0.7211" relative="1" as="geometry">
            <mxPoint as="offset" />
          </mxGeometry>
        </mxCell>
        <mxCell id="ece8O2Vh7LZ30s53ItJL-27" style="edgeStyle=orthogonalEdgeStyle;rounded=0;orthogonalLoop=1;jettySize=auto;html=1;" edge="1" parent="WIyWlLk6GJQsqaUBKTNV-1" source="ece8O2Vh7LZ30s53ItJL-23">
          <mxGeometry relative="1" as="geometry">
            <mxPoint x="500" y="420" as="targetPoint" />
            <Array as="points">
              <mxPoint x="590" y="520" />
              <mxPoint x="500" y="520" />
            </Array>
          </mxGeometry>
        </mxCell>
        <mxCell id="ece8O2Vh7LZ30s53ItJL-23" value="start = -1" style="whiteSpace=wrap;html=1;" vertex="1" parent="WIyWlLk6GJQsqaUBKTNV-1">
          <mxGeometry x="530" y="845" width="120" height="60" as="geometry" />
        </mxCell>
      </root>
    </mxGraphModel>
  </diagram>
</mxfile>
